<svg width="129" height="150" viewBox="0 0 129 150" fill="none" xmlns="http://www.w3.org/2000/svg">
<path d="M112.261 55.1047H16.5273C7.72603 55.1047 0.604248 62.2395 0.604248 71.0409V134.889C0.604248 143.691 7.73905 150.813 16.5273 150.813H112.274C121.076 150.813 128.197 143.678 128.197 134.889V71.0409C128.197 62.2395 121.063 55.1047 112.274 55.1047" fill="#F1F1F1"/>
<path d="M30.3803 86.2607V77.2511C30.3803 75.2981 28.7919 73.7097 26.839 73.7097H21.553C19.6 73.7097 18.0116 75.2981 18.0116 77.2511V86.2607C18.0116 88.2137 19.6 89.8021 21.553 89.8021H26.839C28.7919 89.8021 30.3803 88.2137 30.3803 86.2607Z" fill="#0096FF"/>
<path d="M50.678 86.2607V77.2511C50.678 75.2981 49.0896 73.7097 47.1367 73.7097H41.8507C39.8977 73.7097 38.3093 75.2981 38.3093 77.2511V86.2607C38.3093 88.2137 39.8977 89.8021 41.8507 89.8021H47.1367C49.0896 89.8021 50.678 88.2137 50.678 86.2607Z" fill="#0096FF"/>
<path d="M70.9757 86.2607V77.2511C70.9757 75.2981 69.3873 73.7097 67.4343 73.7097H62.1483C60.1953 73.7097 58.6069 75.2981 58.6069 77.2511V86.2607C58.6069 88.2137 60.1953 89.8021 62.1483 89.8021H67.4343C69.3873 89.8021 70.9757 88.2137 70.9757 86.2607Z" fill="#0096FF"/>
<path d="M91.2734 86.2607V77.2511C91.2734 75.2981 89.685 73.7097 87.732 73.7097H82.446C80.4931 73.7097 78.9047 75.2981 78.9047 77.2511V86.2607C78.9047 88.2137 80.4931 89.8021 82.446 89.8021H87.732C89.685 89.8021 91.2734 88.2137 91.2734 86.2607Z" fill="#0096FF"/>
<path d="M111.558 86.2607V77.2511C111.558 75.2981 109.97 73.7097 108.017 73.7097H102.731C100.778 73.7097 99.1895 75.2981 99.1895 77.2511V86.2607C99.1895 88.2137 100.778 89.8021 102.731 89.8021H108.017C109.97 89.8021 111.558 88.2137 111.558 86.2607Z" fill="#0096FF"/>
<path d="M40.5356 107.73V98.7208C40.5356 96.7678 38.9472 95.1794 36.9942 95.1794H31.7082C29.7553 95.1794 28.1669 96.7678 28.1669 98.7208V107.73C28.1669 109.683 29.7553 111.272 31.7082 111.272H36.9942C38.9472 111.272 40.5356 109.683 40.5356 107.73Z" fill="#0096FF"/>
<path d="M60.8333 107.73V98.7208C60.8333 96.7678 59.2449 95.1794 57.292 95.1794H52.006C50.053 95.1794 48.4646 96.7678 48.4646 98.7208V107.73C48.4646 109.683 50.053 111.272 52.006 111.272H57.292C59.2449 111.272 60.8333 109.683 60.8333 107.73Z" fill="#0096FF"/>
<path d="M81.1181 107.73V98.7208C81.1181 96.7678 79.5297 95.1794 77.5768 95.1794H72.2908C70.3378 95.1794 68.7494 96.7678 68.7494 98.7208V107.73C68.7494 109.683 70.3378 111.272 72.2908 111.272H77.5768C79.5297 111.272 81.1181 109.683 81.1181 107.73Z" fill="#0096FF"/>
<path d="M101.416 107.73V98.7208C101.416 96.7678 99.8273 95.1794 97.8744 95.1794H92.5884C90.6354 95.1794 89.047 96.7678 89.047 98.7208V107.73C89.047 109.683 90.6354 111.272 92.5884 111.272H97.8744C99.8273 111.272 101.416 109.683 101.416 107.73Z" fill="#0096FF"/>
<path d="M30.3803 129.2V120.19C30.3803 118.237 28.7919 116.649 26.839 116.649H21.553C19.6 116.649 18.0116 118.237 18.0116 120.19V129.2C18.0116 131.153 19.6 132.741 21.553 132.741H26.839C28.7919 132.741 30.3803 131.153 30.3803 129.2Z" fill="#0096FF"/>
<path d="M111.558 129.2V120.19C111.558 118.237 109.97 116.649 108.017 116.649H102.731C100.778 116.649 99.1895 118.237 99.1895 120.19V129.2C99.1895 131.153 100.778 132.741 102.731 132.741H108.017C109.97 132.741 111.558 131.153 111.558 129.2Z" fill="#0096FF"/>
<path d="M91.2734 129.2V120.19C91.2734 118.237 89.685 116.649 87.732 116.649H41.8636C39.9107 116.649 38.3223 118.237 38.3223 120.19V129.2C38.3223 131.153 39.9107 132.741 41.8636 132.741H87.732C89.685 132.741 91.2734 131.153 91.2734 129.2Z" fill="#0096FF"/>
<path d="M106.194 0.8125H22.7767C12.426 0.8125 4.02832 9.21021 4.02832 19.5609C4.02832 25.2765 6.5932 30.3933 10.6293 33.8435C15.8502 40.0279 25.3937 51.3029 25.3937 51.3029C25.7452 51.8758 26.266 51.8237 26.266 51.4852V31.6692C26.266 31.4739 26.305 31.4218 26.3571 31.539L30.7838 38.3223H106.194C116.545 38.3223 124.942 29.9246 124.942 19.5609C124.942 9.19719 116.545 0.8125 106.194 0.8125Z" fill="#F1F1F1"/>
<path d="M52.2664 12.8425V26.9689H48.1001V25.9534C46.9414 26.7085 45.5613 27.1512 44.077 27.1512C39.9758 27.1512 36.6558 23.8181 36.6558 19.7299C36.6558 15.6418 39.9888 12.3087 44.077 12.3087C44.6108 12.3087 45.1186 12.3608 45.6134 12.478L48.1001 15.2902V12.8686H52.2664V12.8425ZM47.0846 19.2482C46.8502 17.79 45.5873 16.6703 44.064 16.6703C42.3715 16.6703 41.0044 18.0374 41.0044 19.7299C41.0044 21.4225 42.3715 22.7896 44.064 22.7896C45.5873 22.7896 46.8502 21.6699 47.0846 20.2117V19.2612V19.2482ZM69.4264 19.7299C69.4264 23.8312 66.0934 27.1512 62.0052 27.1512C60.5209 27.1512 59.1408 26.7085 57.9821 25.9534V31.3045H53.8158V12.8425H57.9821V15.2642L60.4688 12.4519C60.9636 12.3478 61.4844 12.2827 62.0052 12.2827C66.1064 12.2827 69.4264 15.6157 69.4264 19.7039M65.0648 19.7039C65.0648 18.0113 63.6977 16.6443 62.0052 16.6443C60.4819 16.6443 59.219 17.764 58.9846 19.2222V20.1726C59.219 21.6308 60.4819 22.7505 62.0052 22.7505C63.6977 22.7505 65.0648 21.3835 65.0648 19.6909M86.2348 19.6909C86.2348 23.7921 82.9018 27.1121 78.8006 27.1121C77.3163 27.1121 75.9363 26.6695 74.7775 25.9143V31.2654H70.6112V12.8035H74.7775V15.2251L77.2643 12.4129C77.759 12.3087 78.2798 12.2436 78.8006 12.2436C82.9018 12.2436 86.2348 15.5767 86.2348 19.6649M81.8732 19.6649C81.8732 17.9723 80.4932 16.6052 78.8136 16.6052C77.2903 16.6052 76.0274 17.7249 75.793 19.1831V20.1336C76.0274 21.5918 77.2903 22.7115 78.8136 22.7115C80.5062 22.7115 81.8732 21.3444 81.8732 19.6518M102.757 12.7774V26.9038H98.5905V25.8883C97.4318 26.6434 96.0517 27.0861 94.5675 27.0861C90.4662 27.0861 87.1462 23.753 87.1462 19.6649C87.1462 15.5767 90.4793 12.2436 94.5675 12.2436C95.1013 12.2436 95.609 12.2957 96.1038 12.4129L98.5905 15.2251V12.8035H102.757V12.7774ZM97.575 19.1831C97.3406 17.7249 96.0777 16.6052 94.5544 16.6052C92.8619 16.6052 91.4948 17.9723 91.4948 19.6649C91.4948 21.3574 92.8749 22.7245 94.5544 22.7245C96.0777 22.7245 97.3406 21.6048 97.575 20.1466V19.1961V19.1831ZM36.0309 16.7745V12.7774H32.5806V8.09033H28.4143V12.7774H26.3312V16.7745H30.4975L28.4274 18.6623V24.2348C28.4274 25.706 29.6121 26.9038 31.0964 26.9038H35.8616V23.1541H33.3488C32.9322 23.1541 32.5937 22.8156 32.5937 22.399V16.7745H36.0439H36.0309Z" fill="#0096FF"/>
</svg>
